<?xml version="1.0" standalone="no"?>
<!DOCTYPE svg PUBLIC "-//W3C//DTD SVG 20010904//EN"
 "http://www.w3.org/TR/2001/REC-SVG-20010904/DTD/svg10.dtd">
<svg version="1.0" xmlns="http://www.w3.org/2000/svg"
 width="600.000000pt" height="600.000000pt" viewBox="0 0 600.000000 600.000000"
 preserveAspectRatio="xMidYMid meet">
<metadata>
Created by potrace 1.14, written by Peter Selinger 2001-2017
</metadata>
<g transform="translate(0.000000,600.000000) scale(0.100000,-0.100000)"
fill="#000000" stroke="none">
<path d="M0 3000 l0 -3000 3000 0 3000 0 0 3000 0 3000 -3000 0 -3000 0 0
-3000z m4480 1148 l0 -232 35 41 c50 59 120 87 220 87 159 1 263 -67 304 -198
19 -60 20 -94 21 -403 l2 -338 -155 -3 -154 -2 -6 127 c-4 71 -7 200 -7 288 0
88 -5 177 -10 197 -22 79 -110 104 -173 49 -55 -49 -60 -77 -64 -383 l-5 -276
-101 -7 c-56 -4 -127 -5 -157 -3 l-55 3 -3 637 -2 637 37 4 c21 2 91 4 156 5
l117 2 0 -232z m-1446 -118 c66 -10 213 -54 229 -69 6 -6 -63 -195 -76 -208
-2 -1 -37 8 -78 22 -40 14 -97 28 -126 32 l-53 6 0 -45 0 -45 68 -28 c164 -68
250 -136 272 -214 5 -20 10 -70 10 -111 0 -128 -54 -211 -175 -267 -59 -27
-63 -28 -235 -27 -142 0 -187 4 -240 20 l-65 19 -3 133 c-1 72 -1 132 0 132 2
0 28 -9 58 -21 109 -41 273 -62 298 -37 7 7 12 28 12 47 l0 36 -119 53 c-184
82 -239 143 -249 272 -6 87 11 143 59 195 82 89 241 130 413 105z m922 -5 c92
-21 144 -45 143 -64 0 -28 -84 -226 -94 -224 -6 1 -36 11 -67 23 -76 27 -162
27 -206 0 -53 -32 -77 -96 -76 -205 0 -105 19 -155 74 -192 58 -40 184 -27
298 31 l52 26 0 -130 0 -130 -32 -20 c-84 -52 -240 -78 -351 -61 -190 31 -306
133 -352 306 -20 77 -20 252 0 328 42 161 147 267 305 309 81 21 224 23 306 3z
m-1685 -24 c75 -29 132 -80 166 -149 l28 -57 3 -357 3 -358 -110 0 -111 0 -26
53 c-15 28 -28 54 -30 56 -3 3 -19 -9 -37 -26 -51 -48 -88 -70 -146 -87 -114
-34 -242 -12 -312 51 -63 57 -82 103 -87 211 -5 100 9 155 50 207 52 66 168
111 322 124 58 5 110 12 115 16 16 9 13 68 -3 91 -21 27 -110 23 -206 -11 -41
-15 -82 -29 -90 -31 -12 -4 -26 20 -58 95 -23 55 -42 105 -42 110 0 5 28 20
63 34 54 22 92 31 207 51 14 2 75 3 135 2 84 -3 123 -8 166 -25z m-1176 -1 c3
-5 28 -111 55 -236 28 -125 52 -229 54 -231 3 -3 13 -2 23 1 15 5 22 23 32 79
6 39 29 144 49 232 l37 160 153 3 c83 1 152 0 152 -3 0 -6 -166 -643 -214
-824 -14 -52 -29 -98 -34 -103 -5 -5 -82 -7 -172 -6 l-163 3 -57 235 c-31 129
-63 272 -70 318 -8 45 -16 82 -20 82 -3 0 -12 -35 -19 -77 -7 -43 -37 -185
-67 -317 -30 -131 -54 -240 -54 -242 0 -2 -75 -4 -167 -4 l-168 0 -104 383
c-57 210 -115 419 -127 465 l-23 83 156 -3 157 -3 38 -175 c21 -96 49 -240 62
-320 14 -80 25 -129 25 -110 2 61 87 495 117 592 4 14 21 18 97 21 206 7 246
7 252 -3z m3628 -1020 c78 -24 136 -65 181 -127 54 -75 69 -131 74 -280 l4
-133 -139 -1 c-76 -1 -142 -2 -148 -4 -5 -1 -67 -3 -137 -3 -127 -2 -128 -2
-128 -26 0 -33 39 -86 80 -110 64 -38 240 -25 359 26 24 10 45 17 46 16 1 -2
5 -53 9 -114 l6 -111 -52 -23 c-157 -68 -408 -65 -552 6 -64 31 -143 110 -176
173 -45 90 -63 259 -39 386 43 232 222 364 471 349 42 -2 106 -13 141 -24z
m1078 25 c3 -2 -1 -66 -8 -142 -6 -76 -12 -142 -13 -148 0 -6 -38 -10 -93 -10
-102 0 -141 -15 -181 -68 -20 -27 -21 -42 -24 -303 l-3 -274 -153 0 -153 0 -6
68 c-4 37 -7 246 -7 465 l0 397 119 0 119 0 23 -67 c12 -38 23 -70 26 -72 2
-3 26 21 53 51 69 78 133 108 225 108 40 0 74 -2 76 -5z m-2518 -33 c48 -22
116 -92 146 -149 39 -78 54 -161 55 -303 1 -151 -10 -212 -57 -308 -37 -78
-108 -144 -179 -168 -68 -22 -177 -16 -236 15 -42 21 -45 22 -63 5 -17 -16
-19 -33 -19 -221 l0 -203 -159 0 -159 0 -7 493 c-3 270 -5 571 -3 667 l3 175
128 3 127 3 20 -46 c23 -54 44 -58 86 -14 54 57 124 81 217 74 33 -3 78 -13
100 -23z m-1068 3 c71 -18 150 -70 184 -119 54 -81 55 -95 59 -469 l3 -348
-113 3 -113 3 -25 47 c-14 27 -29 48 -33 48 -5 0 -28 -16 -51 -35 -76 -62
-128 -79 -241 -80 -92 0 -104 2 -153 30 -66 36 -107 92 -128 177 -28 107 -8
209 55 281 59 66 204 116 338 117 71 0 87 15 77 70 -12 59 -71 65 -206 20 -50
-17 -92 -29 -94 -27 -2 2 -24 49 -49 106 l-44 102 56 25 c52 23 141 48 208 57
75 10 215 6 270 -8z m1729 -77 c3 -50 6 -261 6 -470 l0 -378 -160 0 -160 0 -2
363 c-1 199 -2 408 -3 464 l-1 102 30 4 c17 2 88 5 157 5 l126 2 7 -92z
m-2629 58 c130 -60 204 -224 205 -456 0 -117 -16 -204 -50 -278 -43 -93 -82
-136 -152 -171 -110 -55 -253 -39 -333 39 l-30 29 3 -244 4 -245 -161 0 -161
0 0 508 c0 279 -3 578 -7 665 l-6 157 136 0 c77 0 137 -4 137 -9 0 -5 9 -31
21 -58 l21 -48 31 35 c71 79 116 99 222 99 53 1 82 -5 120 -23z"/>
<path d="M2005 3475 c-22 -8 -41 -15 -42 -15 -1 0 -10 -14 -19 -32 -13 -26
-14 -38 -5 -69 14 -45 35 -59 90 -59 58 0 110 48 118 108 10 76 -44 102 -142
67z"/>
<path d="M4492 2760 c-31 -19 -44 -41 -58 -95 l-6 -25 131 0 c125 0 131 1 131
20 0 30 -26 75 -56 99 -35 27 -98 28 -142 1z"/>
<path d="M2994 2726 c-48 -21 -67 -78 -67 -208 0 -92 3 -113 24 -155 18 -37
32 -51 58 -59 104 -34 158 55 149 242 -5 107 -25 156 -73 178 -40 19 -51 19
-91 2z"/>
<path d="M2010 2440 c-42 -10 -70 -42 -70 -82 0 -36 24 -83 45 -92 94 -36 173
72 114 155 -21 30 -31 32 -89 19z"/>
<path d="M1012 2704 c-12 -8 -27 -24 -32 -35 -29 -54 -29 -267 1 -332 22 -49
89 -70 142 -46 46 21 61 64 65 184 5 126 -7 181 -44 219 -31 31 -95 36 -132
10z"/>
</g>
</svg>
